<svg xmlns="http://www.w3.org/2000/svg" viewBox="0 0 32 32">
  <rect width="32" height="32" rx="7" fill="#0f172a"/>
  <!-- folder body -->
  <path d="M5 12.5C5 11.4 5.9 10.5 7 10.5h5l2 2h11c1.1 0 2 .9 2 2v8c0 1.1-.9 2-2 2H7c-1.1 0-2-.9-2-2v-10z" fill="#475569"/>
  <!-- folder tab -->
  <path d="M5 14.5h22v8c0 1.1-.9 2-2 2H7c-1.1 0-2-.9-2-2v-8z" fill="#94a3b8"/>
  <!-- file lines -->
  <rect x="9" y="18" width="8" height="1.2" rx=".6" fill="#cbd5e1" opacity=".8"/>
  <rect x="9" y="20.5" width="5" height="1.2" rx=".6" fill="#cbd5e1" opacity=".5"/>
</svg>
